<svg xmlns="http://www.w3.org/2000/svg" viewBox="0 0 426.23 94.75"><defs><style>.\30 fec4d2f-911d-43de-ad1f-5962987820ca{fill:#d8df21;}.c7c8a7fb-1bff-41a3-a780-b18bbb3e72fd{fill:#b2b2b2;}.\31 2e10e4c-b74e-479a-a847-fa2fedfe3e56{fill:#cbcbcb;}</style></defs><title>Element 60</title><g id="f6a02707-0cd4-42a1-8464-c0403fdfc368" data-name="Ebene 2"><g id="576c624c-a75d-442a-8528-91b1bc0a13bc" data-name="Ebene 1"><path class="0fec4d2f-911d-43de-ad1f-5962987820ca" d="M110.34,12.81V55.92h23.41v3.77H106.4V12.81Z"/><path class="0fec4d2f-911d-43de-ad1f-5962987820ca" d="M144.24,37.49V55.92H165.8v3.77H140.18V12.81h23.88v3.77H144.18V33.73H161v3.71H144.24Z"/><path class="0fec4d2f-911d-43de-ad1f-5962987820ca" d="M180.4,12.81l16.23,28.45,16.23-28.45H218V59.69h-3.77V18.31L197.67,48h-2.14L179.18,18.54V59.69h-3.77V12.81Z"/><path class="0fec4d2f-911d-43de-ad1f-5962987820ca" d="M308.18,12.81H312V59.69h-5.33l-27.7-41.78V59.69h-3.77V12.81h5.22l27.82,41.72Z"/><path class="c7c8a7fb-1bff-41a3-a780-b18bbb3e72fd" d="M319.6,16.69V12.92h35.06v3.77H339.07V59.75H335V16.69Z"/><path class="c7c8a7fb-1bff-41a3-a780-b18bbb3e72fd" d="M365.67,37.49V55.92h21.56v3.77H361.67V12.81h23.88v3.77H365.67V33.73h16.75v3.71H365.67Z"/><path class="c7c8a7fb-1bff-41a3-a780-b18bbb3e72fd" d="M398.94,26.77v19c0,7.19,5.45,10.84,12.63,10.84,4.81,0,9.39-1.22,12.63-4.06l1.91,3.19c-4,3.54-8.92,4.69-14.55,4.69-9.5,0-16.69-5.1-16.69-14.6V26.77c0-9,7.53-14.6,16.63-14.6,6.26,0,11,1.85,14.55,5.8l-2.43,3a16.26,16.26,0,0,0-12.11-5C404.73,15.94,398.94,20.05,398.94,26.77Z"/><path class="0fec4d2f-911d-43de-ad1f-5962987820ca" d="M244.32,56.79c-7.19,0-13.68-3.77-13.68-11V26.72c0-6.66,6.78-11.07,13.56-11.07h.35V12.17h-.35c-9.1,0-17.62,5.51-17.62,14.55V45.84c0,9.5,8.17,14.43,17.73,14.43h.23V56.79Z"/><path class="0fec4d2f-911d-43de-ad1f-5962987820ca" d="M248.9,12.17H248v3.48h.87c6.66,0,13.62,4.4,13.62,11.13v19c0,7.13-6.61,11-13.62,11H248v3.48h.87c9.33,0,17.68-5,17.68-14.43V26.66C266.63,17.79,257.88,12.17,248.9,12.17Z"/><path class="12e10e4c-b74e-479a-a847-fa2fedfe3e56" d="M47.4,94.75A47.38,47.38,0,1,1,94.81,47.4,47.45,47.45,0,0,1,47.4,94.75Zm0-91.27A43.93,43.93,0,1,0,91.33,47.4,44,44,0,0,0,47.4,3.48Z"/><path class="0fec4d2f-911d-43de-ad1f-5962987820ca" d="M35.7,14.08c5.8,18.95,10.49,30.6,11.53,30.6s6-13.21,11.53-30.6C62.12,3.54,32.39,3.25,35.7,14.08Z"/><path class="0fec4d2f-911d-43de-ad1f-5962987820ca" d="M62.7,15.7c-9.27,17.5-14.26,29-13.5,29.79S62.76,40.39,79,32C88.78,26.89,68,5.68,62.7,15.7Z"/><path class="0fec4d2f-911d-43de-ad1f-5962987820ca" d="M80.61,35.93C61.66,41.72,50,46.42,50,47.46s13.21,6,30.6,11.53C91.16,62.3,91.45,32.57,80.61,35.93Z"/><path class="0fec4d2f-911d-43de-ad1f-5962987820ca" d="M79,62.88C61.49,53.6,50,48.62,49.2,49.37s5.1,13.56,13.5,29.79C67.74,89,89,68.21,79,62.88Z"/><path class="0fec4d2f-911d-43de-ad1f-5962987820ca" d="M58.76,80.84C53,61.89,48.27,50.24,47.23,50.24s-6,13.21-11.53,30.6C32.34,91.33,62.07,91.62,58.76,80.84Z"/><path class="0fec4d2f-911d-43de-ad1f-5962987820ca" d="M31.76,79.22C41,61.72,46,50.19,45.26,49.43s-13.56,5.1-29.79,13.5C5.68,68,26.48,89.19,31.76,79.22Z"/><path class="0fec4d2f-911d-43de-ad1f-5962987820ca" d="M13.85,59c19-5.8,30.6-10.49,30.6-11.53s-13.21-6-30.6-11.53C3.3,32.57,3,62.3,13.85,59Z"/><path class="0fec4d2f-911d-43de-ad1f-5962987820ca" d="M15.47,32c17.5,9.27,29,14.26,29.79,13.5s-5.1-13.56-13.5-29.79C26.72,5.85,5.51,26.66,15.47,32Z"/><path class="c7c8a7fb-1bff-41a3-a780-b18bbb3e72fd" d="M110.45,68.21a7.5,7.5,0,0,1,2,.23,3.9,3.9,0,0,1,1.62.81,3.35,3.35,0,0,1,1,1.33,4.67,4.67,0,0,1,.41,1.91v4.81a4.2,4.2,0,0,1-.41,1.91,4.12,4.12,0,0,1-1.1,1.33,5,5,0,0,1-1.68.81,7.78,7.78,0,0,1-2,.23h-4.11V68.21h4.23Zm3,4.29a2.21,2.21,0,0,0-.23-1.1,2,2,0,0,0-.64-.75,3.89,3.89,0,0,0-1-.46,3.74,3.74,0,0,0-1.16-.17h-2.26v9.74h2.14a7.89,7.89,0,0,0,1.22-.12,3.38,3.38,0,0,0,1-.46,2.84,2.84,0,0,0,.7-.75,2.21,2.21,0,0,0,.23-1.1V72.5Z"/><path class="c7c8a7fb-1bff-41a3-a780-b18bbb3e72fd" d="M118.57,68.21h2V81.6h-2Z"/><path class="c7c8a7fb-1bff-41a3-a780-b18bbb3e72fd" d="M126.16,75.57v4.17h5.68V81.6h-7.77V68.21h7.36v1.85h-5.27v3.77h4.4v1.8h-4.4Z"/><path class="c7c8a7fb-1bff-41a3-a780-b18bbb3e72fd" d="M146.73,68.21l2.78,10.55,2.14-10.55h2.14L150.73,81.6h-2.32l-2.72-10.14L143,81.6h-2.32l-3.3-13.39h2.14L142,78.7l2.72-10.49Z"/><path class="c7c8a7fb-1bff-41a3-a780-b18bbb3e72fd" d="M157.86,75.57v4.17h5.68V81.6h-7.77V68.21h7.3v1.85H157.8v3.77h4.4v1.8h-4.35Z"/><path class="c7c8a7fb-1bff-41a3-a780-b18bbb3e72fd" d="M174,72.84a4,4,0,0,1-.29.75,2.53,2.53,0,0,1-.52.64,2.39,2.39,0,0,1-.64.41,4.24,4.24,0,0,1,1.51,1.1,3,3,0,0,1,.52,1.8v.7a3.18,3.18,0,0,1-1,2.49,3.73,3.73,0,0,1-2.61.87H165.8V68.21h4.81a4,4,0,0,1,1.45.23,3.86,3.86,0,0,1,1.16.7,3.71,3.71,0,0,1,.75,1.1,4,4,0,0,1,.23,1.45V72C174.14,72.38,174.09,72.61,174,72.84Zm-6.2,1H170a2.28,2.28,0,0,0,1.45-.46,1.53,1.53,0,0,0,.58-1.33v-.35a1.41,1.41,0,0,0-.58-1.33,2.76,2.76,0,0,0-1.51-.35h-2.2v3.82Zm4.69,3.54a1.85,1.85,0,0,0-.17-.81,1.64,1.64,0,0,0-.52-.58,1.8,1.8,0,0,0-.75-.35,4.47,4.47,0,0,0-.87-.12h-2.32v4.17h2.67a3.83,3.83,0,0,0,.81-.06,2.08,2.08,0,0,0,.64-.23,1.76,1.76,0,0,0,.46-.46,1.45,1.45,0,0,0,.17-.75v-.81Z"/><path class="c7c8a7fb-1bff-41a3-a780-b18bbb3e72fd" d="M183.07,68.09l4.46,13.5h-2.14l-1.16-3.54H179.3l-1.16,3.54h-2.2l4.64-13.5Zm.64,8.29-1.91-6.08-1.91,6.08Z"/><path class="c7c8a7fb-1bff-41a3-a780-b18bbb3e72fd" d="M194.08,74.35H199V80.2c-.41.23-.75.46-1.1.64s-.7.35-1.1.52l-1.22.35a10.49,10.49,0,0,1-1.45.12,7.89,7.89,0,0,1-2.09-.29,5,5,0,0,1-1.68-.81,4.12,4.12,0,0,1-1.1-1.33,3.8,3.8,0,0,1-.41-1.85V72.32a3.58,3.58,0,0,1,.41-1.8,4.12,4.12,0,0,1,1.1-1.33,6.55,6.55,0,0,1,1.68-.87,7.45,7.45,0,0,1,2-.29,6.71,6.71,0,0,1,2.43.41,6.29,6.29,0,0,1,2,1.27l-1,1.51a5,5,0,0,0-1.62-.93,5,5,0,0,0-1.85-.35,3.74,3.74,0,0,0-1.16.17,5.69,5.69,0,0,0-1,.46,2.84,2.84,0,0,0-.7.75,2,2,0,0,0-.23,1V77.6a2.35,2.35,0,0,0,.23,1.1,2.17,2.17,0,0,0,.7.75,4.35,4.35,0,0,0,1,.46,4.41,4.41,0,0,0,1.22.17,5.67,5.67,0,0,0,1.51-.17,5.91,5.91,0,0,0,1.27-.52V76.21H194V74.35Z"/><path class="c7c8a7fb-1bff-41a3-a780-b18bbb3e72fd" d="M203.7,75.57v4.17h5.68V81.6h-7.77V68.21h7.3v1.85h-5.27v3.77H208v1.8H203.7Z"/><path class="c7c8a7fb-1bff-41a3-a780-b18bbb3e72fd" d="M220.68,68.21h1.85V81.6h-2.84l-6.2-11v11h-1.85V68.21h2.67l6.32,11.18V68.21Z"/><path class="c7c8a7fb-1bff-41a3-a780-b18bbb3e72fd" d="M224.15,70.06V68.21h10.26v1.85H230.3V81.6h-2V70.06Z"/><path class="c7c8a7fb-1bff-41a3-a780-b18bbb3e72fd" d="M244.5,68.21h2v9.16a3.89,3.89,0,0,1-.41,1.91,4.07,4.07,0,0,1-2.78,2.2,7.79,7.79,0,0,1-2,.29,7.89,7.89,0,0,1-2.09-.29,5,5,0,0,1-1.68-.81,3.28,3.28,0,0,1-1.1-1.39,5.12,5.12,0,0,1-.41-1.91V68.21h2v9.16a2.44,2.44,0,0,0,.23,1.16,2.36,2.36,0,0,0,.7.81,2.86,2.86,0,0,0,1,.46,4.35,4.35,0,0,0,2.43,0,4.35,4.35,0,0,0,1-.46,2.36,2.36,0,0,0,.7-.81,2.44,2.44,0,0,0,.23-1.16V68.21Z"/><path class="c7c8a7fb-1bff-41a3-a780-b18bbb3e72fd" d="M257.71,74.76a3.82,3.82,0,0,1-2,1l3.19,5.8h-2.26L253.59,76h-2.14V81.6h-2V68.21h5a5,5,0,0,1,1.62.23,3.3,3.3,0,0,1,1.27.64,2.61,2.61,0,0,1,.81,1.1,4.1,4.1,0,0,1,.29,1.51v1A2.67,2.67,0,0,1,257.71,74.76Zm-6.26-.58h3a2.91,2.91,0,0,0,.7-.12,2.14,2.14,0,0,0,.64-.29,1,1,0,0,0,.41-.46,1.17,1.17,0,0,0,.17-.64v-1a1.39,1.39,0,0,0-.58-1.22,2.31,2.31,0,0,0-1.39-.41h-3v4.11Z"/><path class="c7c8a7fb-1bff-41a3-a780-b18bbb3e72fd" d="M272.66,70.06h-5.27v3.82h4.4v1.74h-4.4v6H265.3V68.21h7.3v1.85Z"/><path class="c7c8a7fb-1bff-41a3-a780-b18bbb3e72fd" d="M283,68.21h2v9.16a3.89,3.89,0,0,1-.41,1.91,4.07,4.07,0,0,1-2.78,2.2,7.79,7.79,0,0,1-2,.29,7.89,7.89,0,0,1-2.09-.29,5,5,0,0,1-1.68-.81,3.28,3.28,0,0,1-1.1-1.39,5.12,5.12,0,0,1-.41-1.91V68.21h2v9.16a2.44,2.44,0,0,0,.23,1.16,2.36,2.36,0,0,0,.7.81,2.86,2.86,0,0,0,1,.46,4.35,4.35,0,0,0,2.43,0,4.35,4.35,0,0,0,1-.46,2.36,2.36,0,0,0,.7-.81,2.44,2.44,0,0,0,.23-1.16V68.21Zm-4.11-1.56h-1.91V64.73h1.91Zm3.77,0h-1.85V64.73h1.85Z"/><path class="c7c8a7fb-1bff-41a3-a780-b18bbb3e72fd" d="M296.19,74.76a3.82,3.82,0,0,1-2,1l3.19,5.8h-2.26L292.07,76h-2.14V81.6h-2V68.21h5a5,5,0,0,1,1.62.23,3.31,3.31,0,0,1,1.27.64,2.61,2.61,0,0,1,.81,1.1,4.1,4.1,0,0,1,.29,1.51v1A2.67,2.67,0,0,1,296.19,74.76Zm-6.26-.58h3a2.91,2.91,0,0,0,.7-.12,2.14,2.14,0,0,0,.64-.29,1,1,0,0,0,.41-.46,1.17,1.17,0,0,0,.17-.64v-1a1.39,1.39,0,0,0-.58-1.22,2.31,2.31,0,0,0-1.39-.41h-3v4.11Z"/><path class="c7c8a7fb-1bff-41a3-a780-b18bbb3e72fd" d="M304.42,68.21h2V81.6h-2Z"/><path class="c7c8a7fb-1bff-41a3-a780-b18bbb3e72fd" d="M318.67,68.21h2V81.6h-2V76h-6.14V81.6h-2V68.21h2v6h6.14Z"/><path class="c7c8a7fb-1bff-41a3-a780-b18bbb3e72fd" d="M331.89,74.76a3.82,3.82,0,0,1-2,1l3.19,5.8h-2.26L327.77,76h-2.14V81.6h-2V68.21h5a5,5,0,0,1,1.62.23,3.31,3.31,0,0,1,1.27.64,2.61,2.61,0,0,1,.81,1.1,4.1,4.1,0,0,1,.29,1.51v1A3.19,3.19,0,0,1,331.89,74.76Zm-6.26-.58h3a2.91,2.91,0,0,0,.7-.12,2.14,2.14,0,0,0,.64-.29,1,1,0,0,0,.41-.46,1.17,1.17,0,0,0,.17-.64v-1a1.39,1.39,0,0,0-.58-1.22,2.31,2.31,0,0,0-1.39-.41h-3v4.11Z"/><path class="c7c8a7fb-1bff-41a3-a780-b18bbb3e72fd" d="M337.16,75.57v4.17h5.68V81.6h-7.77V68.21h7.3v1.85h-5.22v3.77h4.4v1.8h-4.4Z"/><path class="c7c8a7fb-1bff-41a3-a780-b18bbb3e72fd" d="M354.14,68.21H356V81.6h-2.84l-6.2-11v11H345.1V68.21h2.67l6.32,11.18V68.21Z"/><path class="c7c8a7fb-1bff-41a3-a780-b18bbb3e72fd" d="M365.27,75.57v4.17h5.68V81.6h-7.77V68.21h7.3v1.85h-5.27v3.77h4.4v1.8h-4.35Z"/><path class="c7c8a7fb-1bff-41a3-a780-b18bbb3e72fd" d="M381.49,74.76a3.82,3.82,0,0,1-2,1l3.19,5.8h-2.26L377.38,76h-2.14V81.6h-2V68.21h5a5,5,0,0,1,1.62.23,3.31,3.31,0,0,1,1.27.64,2.61,2.61,0,0,1,.81,1.1,4.1,4.1,0,0,1,.29,1.51v1A2.67,2.67,0,0,1,381.49,74.76Zm-6.26-.58h3a2.91,2.91,0,0,0,.7-.12,2.14,2.14,0,0,0,.64-.29,1,1,0,0,0,.41-.46,1.17,1.17,0,0,0,.17-.64v-1a1.39,1.39,0,0,0-.58-1.22,2.31,2.31,0,0,0-1.39-.41h-3v4.11Z"/><path class="c7c8a7fb-1bff-41a3-a780-b18bbb3e72fd" d="M392.1,70.06h-5.27v3.82h4.4v1.74h-4.4v6h-2V68.21h7.3Z"/><path class="c7c8a7fb-1bff-41a3-a780-b18bbb3e72fd" d="M401.08,68.32a4.65,4.65,0,0,1,1.68.87,4.29,4.29,0,0,1,1.16,1.33,3.76,3.76,0,0,1,.46,1.8v5.22a3.8,3.8,0,0,1-.41,1.85,3.65,3.65,0,0,1-1.16,1.33,5,5,0,0,1-1.68.81,7.36,7.36,0,0,1-2,.29h-.29a7.79,7.79,0,0,1-2-.29,5,5,0,0,1-1.68-.81A4.29,4.29,0,0,1,394,79.39a3.8,3.8,0,0,1-.41-1.85V72.32a3.58,3.58,0,0,1,.41-1.8,4.29,4.29,0,0,1,1.16-1.33,5,5,0,0,1,1.68-.81,7.36,7.36,0,0,1,2-.29h.29A3.86,3.86,0,0,1,401.08,68.32Zm1.22,4a2,2,0,0,0-.29-1,1.88,1.88,0,0,0-.75-.75,5.69,5.69,0,0,0-1-.46,3.74,3.74,0,0,0-1.16-.17h-.29a4,4,0,0,0-1.16.17,5.69,5.69,0,0,0-1,.46,1.74,1.74,0,0,0-.7.75,2,2,0,0,0-.29,1v5.22a2.22,2.22,0,0,0,.29,1.1,2.17,2.17,0,0,0,.7.75,2.86,2.86,0,0,0,1,.46,4.12,4.12,0,0,0,1.22.17h.29a4.41,4.41,0,0,0,1.22-.17,2.59,2.59,0,0,0,1-.46,2.84,2.84,0,0,0,.7-.75,2.22,2.22,0,0,0,.29-1.1Z"/><path class="c7c8a7fb-1bff-41a3-a780-b18bbb3e72fd" d="M408.79,68.21V79.8H415v1.85h-8.23V68.27h2Z"/><path class="c7c8a7fb-1bff-41a3-a780-b18bbb3e72fd" d="M421.3,74.35h4.93V80.2c-.41.23-.75.46-1.1.64s-.7.35-1.1.52l-1.22.35a10.49,10.49,0,0,1-1.45.12,7.89,7.89,0,0,1-2.09-.29,5,5,0,0,1-1.68-.81,4.12,4.12,0,0,1-1.1-1.33,3.8,3.8,0,0,1-.41-1.85V72.32a3.58,3.58,0,0,1,.41-1.8,4.12,4.12,0,0,1,1.1-1.33,6.55,6.55,0,0,1,1.68-.87,5.73,5.73,0,0,1,2-.29,6.71,6.71,0,0,1,2.43.41,6.29,6.29,0,0,1,2,1.27l-1,1.51a5,5,0,0,0-1.62-.93,5,5,0,0,0-1.85-.35,3.74,3.74,0,0,0-1.16.17,8.21,8.21,0,0,0-1,.46,2.84,2.84,0,0,0-.7.75,2,2,0,0,0-.23,1V77.6a2.35,2.35,0,0,0,.23,1.1,1.76,1.76,0,0,0,.7.75,2.86,2.86,0,0,0,1,.46,4.41,4.41,0,0,0,1.22.17,5.67,5.67,0,0,0,1.51-.17,5.91,5.91,0,0,0,1.27-.52V76.21h-2.9V74.35Z"/></g></g></svg>